<svg version="1.2" xmlns="http://www.w3.org/2000/svg" viewBox="0 0 512 512" width="512" height="512">
	<title>newpost-svg</title>
	<style>
		.s0 { fill: #ffffff } 
		.s1 { fill: #0e7490 } 
	</style>
	<path id="Layer 1" class="s0" d="m404 101v304h-301v-304z"/>
	<path fill-rule="evenodd" class="s1" d="m256.2 2q1.5 0 3 0c14.5 0.1 28.6 0.3 42.8 3.3q1.4 0.3 2.9 0.6c38.6 8 74.7 23.5 105.8 47.8q1.4 1 2.7 2.1c15.4 11.9 29.9 26 41.8 41.4q1.2 1.4 2.3 2.8c34.2 42.7 52.5 97.6 52.4 152.1q0 4.4 0.1 8.7c0 13.3-1.2 26-3.4 39.1-0.3 1.6-0.3 1.6-0.5 3.4-7 38.6-23.8 75.4-47.9 106.3q-1.1 1.4-2.3 2.9c-12.2 15.2-25.8 29.6-41.2 41.6q-1.4 1.1-2.8 2.2c-31.6 25.3-70.3 41.7-109.9 49.2q-1.2 0.2-2.4 0.5c-29.7 5.8-64 4.7-93.5-1.5-1.5-0.3-1.5-0.3-3-0.7-36.7-7.8-71.2-23.7-100.8-46.8q-1.4-1.1-2.9-2.3c-15.2-12.1-29.6-25.8-41.6-41.2-1.1-1.4-1.1-1.4-2.2-2.8-25.3-31.6-41.7-70.3-49.2-109.9q-0.2-1.2-0.4-2.4c-5.5-27.7-5.3-60.9 0.4-88.5q0.3-1.4 0.6-2.9c10-47.7 31.8-91.8 65.9-126.8q2.6-2.7 5.2-5.4c7-7.3 14.4-13.7 22.5-19.8q2.6-2 5.3-4c8.3-6.3 17-11.8 26.1-16.9q2.7-1.6 5.5-3.2c36.1-20.3 77.5-29.1 118.7-28.9zm-15.5 128.8c-3.3 4.8-5 9.1-5 14.9q0 1.2 0 2.4 0 1.3 0 2.6 0 1.3 0 2.7 0 4.5 0 9 0 3.1 0 6.2 0 8.2 0 16.4 0 8.4 0 16.8 0 16.4 0.1 32.8-1.7 0-3.5 0-16.2-0.1-32.5-0.1-8.3-0.1-16.6-0.1-8.1-0.1-16.2-0.1-3 0-6.1 0-4.3 0-8.6 0c-1.3 0-1.3 0-2.6-0.1-7.5 0.1-14.2 1.8-19.7 7.3-3.8 5.4-5.2 10.2-4.9 16.8 1.2 5.6 3.7 10.7 8.5 14 4.5 2.7 8.1 4 13.3 3.9q1.1 0 2.3 0 1.3 0 2.6 0 1.4 0 2.8 0 4.5 0 9 0 3.1 0 6.2 0 8.2 0 16.4 0 8.4 0 16.7 0 16.5 0 32.9-0.1 0 1.7 0 3.5-0.1 16.2-0.2 32.5 0 8.3 0 16.6-0.1 8.1-0.1 16.2 0 3 0 6.1-0.1 4.3-0.1 8.6 0 1.3 0 2.6c0 7.5 1.8 14.2 7.3 19.7 5.3 3.8 10.2 5.2 16.8 4.9 5.6-1.2 10.7-3.7 14-8.5 2.7-4.5 3.9-8.1 3.9-13.3q0-1.1 0-2.3 0-1.3 0-2.6c0-1.4 0-1.4 0-2.8q0-4.5 0-9 0-3.1 0-6.2 0-8.2 0-16.4-0.1-8.4-0.1-16.7 0-16.5 0-32.9 1.7 0 3.5 0 16.2 0.1 32.4 0.2 8.4 0 16.7 0 8.1 0.1 16.1 0.1 3.1 0 6.2 0 4.3 0.1 8.6 0.1 1.2 0 2.5 0c7.6 0 14.3-1.8 19.8-7.3 3.8-5.3 5.2-10.2 4.9-16.8-1.2-5.6-3.8-10.7-8.6-14-4.4-2.7-8.1-3.9-13.2-3.9q-1.2 0-2.4 0-1.3 0-2.6 0-1.3 0-2.7 0-4.5 0-9 0-3.1 0-6.2 0-8.2 0-16.4 0-8.4 0.1-16.8 0.1-16.4 0-32.8 0 0-1.7 0-3.5 0.1-16.2 0.1-32.4 0.1-8.4 0.1-16.7 0.1-8.1 0.1-16.1 0-3.1 0-6.2 0-4.3 0-8.6 0-1.2 0.1-2.5c-0.1-7.6-1.8-14.3-7.3-19.8-9.6-6.9-21.1-6.5-29.7 2z"/>
</svg>