<?xml version="1.0" encoding="UTF-8"?>
<svg version="1.1" xmlns="http://www.w3.org/2000/svg" width="512" height="512">
<path fill='#0e7490' d="M0 0 C1.01790619 0.00215515 2.03581238 0.0043103 3.08456421 0.00653076 C17.69363523 0.05620146 32.02575853 0.30709809 46.375 3.3125 C47.34985352 3.51117676 48.32470703 3.70985352 49.32910156 3.91455078 C88.37782454 12.08284366 124.83813271 27.70153311 156.375 52.3125 C157.27089844 52.99699219 158.16679687 53.68148437 159.08984375 54.38671875 C174.64917637 66.50480877 189.28601276 80.73459548 201.375 96.3125 C202.138125 97.24707031 202.90125 98.18164062 203.6875 99.14453125 C238.32242031 142.38267695 256.81365439 197.89440148 256.69067383 253.03979492 C256.6875221 255.97938487 256.71104926 258.9179558 256.73632812 261.85742188 C256.78098737 275.23056192 255.57551542 288.12666711 253.375 301.3125 C253.09281616 303.01805054 253.09281616 303.01805054 252.80493164 304.75805664 C245.77946967 343.86954746 228.79665906 381.05202178 204.375 412.3125 C203.61574219 413.28445313 202.85648437 414.25640625 202.07421875 415.2578125 C189.73986402 430.63741644 175.93895499 445.19015196 160.375 457.3125 C159.43914062 458.07691406 158.50328125 458.84132813 157.5390625 459.62890625 C125.58628299 485.2157721 86.41988322 501.72551276 46.375 509.3125 C45.56562988 509.47621094 44.75625977 509.63992188 43.92236328 509.80859375 C13.88110013 515.67977137 -20.7615176 514.58512909 -50.625 508.3125 C-52.14794678 507.99901611 -52.14794678 507.99901611 -53.70166016 507.67919922 C-90.84546555 499.78695344 -125.70945445 483.68345578 -155.625 460.3125 C-156.59695312 459.55324219 -157.56890625 458.79398437 -158.5703125 458.01171875 C-173.94991644 445.67736402 -188.50265196 431.87645499 -200.625 416.3125 C-201.77162109 414.90871094 -201.77162109 414.90871094 -202.94140625 413.4765625 C-228.5282721 381.52378299 -245.03801276 342.35738322 -252.625 302.3125 C-252.78871094 301.50312988 -252.95242187 300.69375977 -253.12109375 299.85986328 C-258.59069558 271.87335724 -258.46977511 238.21828161 -252.625 210.3125 C-252.42632324 209.33764648 -252.22764648 208.36279297 -252.02294922 207.35839844 C-241.93598313 159.13741149 -219.89911449 114.53770064 -185.40722656 79.14160156 C-183.63301167 77.32072238 -181.87518486 75.48496071 -180.1171875 73.6484375 C-173.01562574 66.30860161 -165.60158994 59.73928631 -157.40917969 53.64355469 C-155.59628085 52.2910746 -153.80174757 50.91656557 -152.0078125 49.5390625 C-143.60124472 43.15234877 -134.85975388 37.61076633 -125.65234375 32.45166016 C-123.78933792 31.40484113 -121.94116361 30.33571119 -120.09375 29.26171875 C-83.4933446 8.69459905 -41.63834482 -0.15855121 0 0 Z M-15.625 130.3125 C-18.95085694 135.12150936 -20.75305698 139.52587528 -20.74525452 145.36212158 C-20.74662918 146.15855072 -20.74800385 146.95497986 -20.74942017 147.77554321 C-20.74582489 148.64013153 -20.74222961 149.50471985 -20.73852539 150.39550781 C-20.73867142 151.31292755 -20.73881744 152.23034729 -20.7389679 153.17556763 C-20.73827166 156.20561087 -20.73049275 159.23559251 -20.72265625 162.265625 C-20.72079104 164.36741095 -20.71936762 166.46919734 -20.71836853 168.57098389 C-20.71455144 174.10133058 -20.70472801 179.63165099 -20.69366455 185.1619873 C-20.68343309 190.80590459 -20.67886719 196.44982612 -20.67382812 202.09375 C-20.66310505 213.16667821 -20.64603829 224.23958692 -20.625 235.3125 C-21.78487427 235.30583817 -22.94474854 235.29917633 -24.13977051 235.29231262 C-35.08606042 235.23142053 -46.03231584 235.18648844 -56.97873688 235.15706348 C-62.60601375 235.14142713 -68.23315356 235.12022577 -73.86035156 235.08618164 C-79.2938725 235.05351605 -84.72726184 235.03563171 -90.16087341 235.02786827 C-92.23085094 235.02233771 -94.3008215 235.01153788 -96.3707428 234.99530983 C-99.27661541 234.97344004 -102.18194857 234.97053709 -105.08789062 234.97192383 C-106.36320145 234.95574509 -106.36320145 234.95574509 -107.66427612 234.9392395 C-115.30312012 234.97852301 -122.05474412 236.74224412 -127.625 242.3125 C-131.50788308 247.70539317 -132.8968631 252.64139787 -132.625 259.3125 C-131.42109901 264.97675548 -128.80976329 270.10995342 -123.953125 273.46875 C-119.45728224 276.15857046 -115.76102492 277.4396872 -110.57537842 277.43275452 C-109.77894928 277.43412918 -108.98252014 277.43550385 -108.16195679 277.43692017 C-107.29736847 277.43332489 -106.43278015 277.42972961 -105.54199219 277.42602539 C-104.62457245 277.42617142 -103.70715271 277.42631744 -102.76193237 277.4264679 C-99.73188913 277.42577166 -96.70190749 277.41799275 -93.671875 277.41015625 C-91.57008905 277.40829104 -89.46830266 277.40686762 -87.36651611 277.40586853 C-81.83616942 277.40205144 -76.30584901 277.39222801 -70.7755127 277.38116455 C-65.13159541 277.37093309 -59.48767388 277.36636719 -53.84375 277.36132812 C-42.77082179 277.35060505 -31.69791308 277.33353829 -20.625 277.3125 C-20.63166183 278.47237427 -20.63832367 279.63224854 -20.64518738 280.82727051 C-20.70607947 291.77356042 -20.75101156 302.71981584 -20.78043652 313.66623688 C-20.79607287 319.29351375 -20.81727423 324.92065356 -20.85131836 330.54785156 C-20.88398395 335.9813725 -20.90186829 341.41476184 -20.90963173 346.84837341 C-20.91516229 348.91835094 -20.92596212 350.9883215 -20.94219017 353.0582428 C-20.96405996 355.96411541 -20.96696291 358.86944857 -20.96557617 361.77539062 C-20.976362 362.62559784 -20.98714783 363.47580505 -20.9982605 364.35177612 C-20.95897699 371.99062012 -19.19525588 378.74224412 -13.625 384.3125 C-8.23210683 388.19538308 -3.29610213 389.5843631 3.375 389.3125 C9.03925548 388.10859901 14.17245342 385.49726329 17.53125 380.640625 C20.22107046 376.14478224 21.5021872 372.44852492 21.49525452 367.26287842 C21.49662918 366.46644928 21.49800385 365.67002014 21.49942017 364.84945679 C21.49582489 363.98486847 21.49222961 363.12028015 21.48852539 362.22949219 C21.48874443 360.85336258 21.48874443 360.85336258 21.4889679 359.44943237 C21.48827166 356.41938913 21.48049275 353.38940749 21.47265625 350.359375 C21.47079104 348.25758905 21.46936762 346.15580266 21.46836853 344.05401611 C21.46455144 338.52366942 21.45472801 332.99334901 21.44366455 327.4630127 C21.43343309 321.81909541 21.42886719 316.17517388 21.42382812 310.53125 C21.41310505 299.45832179 21.39603829 288.38541308 21.375 277.3125 C22.53487427 277.31916183 23.69474854 277.32582367 24.88977051 277.33268738 C35.83606042 277.39357947 46.78231584 277.43851156 57.72873688 277.46793652 C63.35601375 277.48357287 68.98315356 277.50477423 74.61035156 277.53881836 C80.0438725 277.57148395 85.47726184 277.58936829 90.91087341 277.59713173 C92.98085094 277.60266229 95.0508215 277.61346212 97.1207428 277.62969017 C100.02661541 277.65155996 102.93194857 277.65446291 105.83789062 277.65307617 C106.68809784 277.663862 107.53830505 277.67464783 108.41427612 277.6857605 C116.05312012 277.64647699 122.80474412 275.88275588 128.375 270.3125 C132.25788308 264.91960683 133.6468631 259.98360213 133.375 253.3125 C132.17109901 247.64824452 129.55976329 242.51504658 124.703125 239.15625 C120.20728224 236.46642954 116.51102492 235.1853128 111.32537842 235.19224548 C110.52894928 235.19087082 109.73252014 235.18949615 108.91195679 235.18807983 C108.04736847 235.19167511 107.18278015 235.19527039 106.29199219 235.19897461 C105.37457245 235.19882858 104.45715271 235.19868256 103.51193237 235.1985321 C100.48188913 235.19922834 97.45190749 235.20700725 94.421875 235.21484375 C92.32008905 235.21670896 90.21830266 235.21813238 88.11651611 235.21913147 C82.58616942 235.22294856 77.05584901 235.23277199 71.5255127 235.24383545 C65.88159541 235.25406691 60.23767388 235.25863281 54.59375 235.26367188 C43.52082179 235.27439495 32.44791308 235.29146171 21.375 235.3125 C21.38166183 234.15262573 21.38832367 232.99275146 21.39518738 231.79772949 C21.45607947 220.85143958 21.50101156 209.90518416 21.53043652 198.95876312 C21.54607287 193.33148625 21.56727423 187.70434644 21.60131836 182.07714844 C21.63398395 176.6436275 21.65186829 171.21023816 21.65963173 165.77662659 C21.66516229 163.70664906 21.67596212 161.6366785 21.69219017 159.5667572 C21.71405996 156.66088459 21.71696291 153.75555143 21.71557617 150.84960938 C21.726362 149.99940216 21.73714783 149.14919495 21.7482605 148.27322388 C21.70897699 140.63437988 19.94525588 133.88275588 14.375 128.3125 C4.65414809 121.31348663 -6.99398975 121.68148975 -15.625 130.3125 Z "  transform="translate(255.625,-0.3125)"/>
</svg>
